<svg width="512" height="512" viewBox="0 0 512 512" fill="none" xmlns="http://www.w3.org/2000/svg">
  <!-- Background -->
  <rect width="512" height="512" rx="110" fill="#ffffff"/>

  <!-- Logo centered and scaled -->
  <g transform="translate(103.5, 161.5) scale(2.9)">
    <path d="M88.7183 0H102L64.1225 63L54 45.5243L76.376 7.42718C79.8483 1.51567 84.3542 0.217223 88.7183 0Z" fill="#111111"/>
    <path d="M4 0H17.043C24.5169 0.739335 25.6392 2.71572 27.635 5.32084L63 65.8563C63 65.8563 52.0566 66.1097 48.0312 65.9435C44.0057 65.7772 42.396 65.4899 37.9644 58.7037L4 0Z" fill="#3FD8A8"/>
    <path d="M87.5513 30L105 59.96C105 59.96 99.7205 60.05 91.4875 59.96C83.2545 59.8699 83.1283 56.3422 77 47.4824L87.5513 30Z" fill="#3FD8A8"/>
    <path d="M17.522 30L0 59.96C0 59.96 5.30169 60.05 13.5693 59.96C21.8368 59.8699 21.846 56.4375 28 47.5777L17.522 30Z" fill="#111111"/>
  </g>
</svg>
